# xmcd
#
# Track frame offsets: 
#        150
#        28665
#        48427
#        57087
#        68497
#        86202
#        105752
#        114795
#        140730
#        165902
#        187895
#        205097
#        216322
#        239860
#        257105
#        267420
#        287390
#        321097
#
# Disc length: 4545 seconds
#
# Revision: 1
# Processed by: cddbd v1.5.2PL0 Copyright (c) Steve Scherf et al.
# Submitted via: ExactAudioCopy v1.0b2
#
DISCID=fd11bf12
DTITLE=Various Artist - TRANCE RAVE presents ATOM
DYEAR=2004
DGENRE=Trance
TTITLE0=TSUBASA-WO-KUDASAI - ATOMIC BOYS
TTITLE1=EVERY TIME WE TOUCH - TRINITY
TTITLE2=CLOSE TO YOU - AXEL COON
TTITLE3=FAIRY TALE OF DREAMS (LANCE INC. MIX) - BONITO and TROOPER
TTITLE4=COME WITH ME (GROOVE COVERAGE REMIX) - SPECIAL D
TTITLE5=COLD AS ICE (DJ ANDY GARCIA MIX) - LANCE INC
TTITLE6=NIGHT OF LOVE (CLUB MIX) - GYAXE
TTITLE7=A WHOLE NEW WORLD - ARPEGGIO
TTITLE8=NO CHALLENGE, NO SUCCESS (VOCAL MIX) - KOGLIN, UTO
TTITLE9=RUN TO ME (TRANK EXTENDED) - AL.BEN
TTITLE10=CLUBMIX (C-16) TRANCE ANTHEM - CLUB MIX BOYZ
TTITLE11=WATERFALL 2002 (WOODY VAN EYDEN REMIX) - ATLANTIC OCEAN
TTITLE12=VELVET - DJ KOUSUKE
TTITLE13=HYSTERIA - DJ KOUSUKE
TTITLE14=MUSIC SELL - KENSHIN
TTITLE15=KERNKRAFT 400 (SKAM REMIX) - TWEETWOOF
TTITLE16=SCREAM (TRONIK REMIX) - DIGIMIND
TTITLE17=BONUS VIDEO
EXTD=
EXTT0=
EXTT1=
EXTT2=
EXTT3=
EXTT4=
EXTT5=
EXTT6=
EXTT7=
EXTT8=
EXTT9=
EXTT10=
EXTT11=
EXTT12=
EXTT13=
EXTT14=
EXTT15=
EXTT16=
EXTT17=
PLAYORDER=
